<?xml version="1.0" standalone="no"?>
<!DOCTYPE svg PUBLIC "-//W3C//DTD SVG 20010904//EN"
 "http://www.w3.org/TR/2001/REC-SVG-20010904/DTD/svg10.dtd">
<svg version="1.0" xmlns="http://www.w3.org/2000/svg"
 width="512.000000pt" height="512.000000pt" viewBox="0 0 512.000000 512.000000"
 preserveAspectRatio="xMidYMid meet">
<metadata>
Created by potrace 1.11, written by Peter Selinger 2001-2013
</metadata>
<g transform="translate(0.000000,512.000000) scale(0.100000,-0.100000)"
fill="#000000" stroke="none">
<path d="M4565 5095 c-38 -13 -72 -25 -75 -26 -6 -2 -17 -5 -60 -17 -19 -6
-84 -26 -145 -45 -60 -19 -177 -56 -260 -82 -406 -126 -503 -157 -540 -170
-22 -7 -130 -41 -240 -75 -110 -34 -217 -68 -238 -76 -20 -7 -39 -14 -42 -14
-6 1 -224 -66 -265 -80 -14 -5 -106 -34 -205 -65 -99 -31 -227 -71 -285 -90
-58 -18 -166 -51 -240 -74 -74 -23 -153 -48 -175 -55 -22 -8 -101 -33 -175
-56 -74 -23 -162 -51 -195 -62 -33 -11 -73 -24 -90 -28 -27 -7 -508 -158 -675
-212 -53 -17 -101 -22 -253 -27 l-189 -6 -24 -28 -24 -28 0 -1779 c0 -1753 0
-1780 20 -1833 21 -56 72 -113 130 -143 34 -18 109 -19 2240 -19 2131 0 2206
1 2240 19 49 26 98 74 123 121 l22 40 0 1462 0 1462 -23 23 -23 23 -1768 1
c-972 0 -1773 4 -1779 8 -24 15 -10 26 61 46 39 12 104 32 142 45 39 13 131
42 205 65 74 23 196 61 270 85 74 24 268 84 430 135 162 50 329 102 370 116
41 13 89 28 105 33 17 5 104 33 195 61 91 29 230 72 310 97 80 25 199 63 265
84 66 21 192 60 280 88 88 27 282 88 430 135 149 46 317 99 375 116 123 38
163 67 157 115 -4 31 -91 324 -107 360 -5 11 -12 31 -15 45 -25 94 -91 285
-104 301 -25 30 -77 31 -156 4z"/>
</g>
</svg>
